<svg xmlns="http://www.w3.org/2000/svg" xmlns:xlink="http://www.w3.org/1999/xlink" preserveAspectRatio="xMidYMid" width="75" height="75" viewBox="0 0 75 75">
  <defs>
    <style>

      .cls-2 {
        fill: #654a1d;
      }
    </style>
  </defs>
  <path d="M51.484,47.033 C51.365,47.033 51.248,47.027 51.130,47.020 C51.130,47.020 50.982,47.013 50.982,47.013 C50.982,47.013 51.063,44.014 51.063,44.014 C51.063,44.014 51.302,44.025 51.302,44.025 C51.362,44.029 51.423,44.033 51.484,44.033 C62.797,44.033 72.000,34.829 72.000,23.516 C72.000,12.204 62.797,3.000 51.484,3.000 C40.171,3.000 30.967,12.204 30.967,23.516 C30.967,23.578 30.972,23.639 30.975,23.699 C30.975,23.699 30.986,23.938 30.986,23.938 C30.986,23.938 27.987,24.018 27.987,24.018 C27.987,24.018 27.980,23.869 27.980,23.869 C27.973,23.752 27.967,23.635 27.967,23.516 C27.967,10.549 38.517,-0.000 51.484,-0.000 C64.451,-0.000 75.000,10.549 75.000,23.516 C75.000,36.483 64.451,47.033 51.484,47.033 ZM47.033,51.484 C47.033,64.451 36.483,75.000 23.516,75.000 C10.549,75.000 -0.000,64.451 -0.000,51.484 C-0.000,38.517 10.549,27.968 23.516,27.968 C36.483,27.968 47.033,38.517 47.033,51.484 ZM23.516,30.968 C12.204,30.968 3.000,40.171 3.000,51.484 C3.000,62.796 12.204,72.000 23.516,72.000 C34.829,72.000 44.033,62.796 44.033,51.484 C44.033,40.171 34.829,30.968 23.516,30.968 ZM24.961,43.114 C24.770,43.305 24.549,43.453 24.300,43.562 C24.050,43.671 23.782,43.724 23.500,43.724 C23.216,43.724 22.953,43.671 22.709,43.562 C22.465,43.453 22.247,43.305 22.056,43.114 C21.865,42.922 21.716,42.705 21.607,42.460 C21.498,42.216 21.445,41.953 21.445,41.669 C21.445,41.387 21.498,41.116 21.607,40.862 C21.716,40.607 21.865,40.384 22.056,40.192 C22.247,40.004 22.465,39.852 22.709,39.743 C22.953,39.635 23.216,39.582 23.500,39.582 C23.782,39.582 24.050,39.635 24.300,39.743 C24.549,39.852 24.770,40.004 24.961,40.192 C25.149,40.384 25.303,40.607 25.418,40.862 C25.532,41.116 25.588,41.387 25.588,41.669 C25.588,41.953 25.532,42.216 25.418,42.460 C25.303,42.705 25.149,42.922 24.961,43.114 ZM24.937,63.386 C24.937,63.386 22.032,63.386 22.032,63.386 C22.032,63.386 22.032,48.386 22.032,48.386 C22.032,48.386 24.937,48.386 24.937,48.386 C24.937,48.386 24.937,63.386 24.937,63.386 ZM46.347,15.176 C46.347,15.176 45.582,13.956 45.582,13.956 C45.918,13.641 46.289,13.345 46.696,13.062 C47.101,12.781 47.546,12.532 48.030,12.315 C48.512,12.098 49.031,11.926 49.589,11.802 C50.147,11.678 50.753,11.614 51.402,11.614 C52.259,11.614 53.053,11.738 53.786,11.990 C54.517,12.239 55.149,12.591 55.678,13.046 C56.210,13.501 56.628,14.054 56.930,14.705 C57.234,15.354 57.385,16.087 57.385,16.899 C57.385,17.722 57.264,18.434 57.020,19.029 C56.777,19.625 56.467,20.149 56.094,20.599 C55.721,21.049 55.311,21.438 54.866,21.768 C54.421,22.099 54.006,22.412 53.622,22.705 C53.238,22.996 52.907,23.290 52.630,23.581 C52.354,23.875 52.193,24.200 52.151,24.558 C52.151,24.558 51.857,27.045 51.857,27.045 C51.857,27.045 49.875,27.045 49.875,27.045 C49.875,27.045 49.679,24.346 49.679,24.346 C49.679,24.346 49.679,24.169 49.679,24.169 C49.679,23.711 49.801,23.309 50.044,22.957 C50.290,22.605 50.597,22.274 50.973,21.964 C51.346,21.655 51.746,21.348 52.175,21.038 C52.603,20.728 53.005,20.387 53.379,20.014 C53.752,19.638 54.061,19.215 54.305,18.736 C54.548,18.259 54.670,17.696 54.670,17.045 C54.670,16.579 54.580,16.158 54.395,15.777 C54.210,15.398 53.961,15.076 53.646,14.811 C53.331,14.544 52.961,14.343 52.532,14.200 C52.106,14.059 51.648,13.988 51.158,13.988 C50.497,13.988 49.930,14.070 49.459,14.234 C48.988,14.395 48.591,14.576 48.266,14.769 C47.940,14.965 47.676,15.145 47.477,15.306 C47.276,15.467 47.109,15.549 46.980,15.549 C46.710,15.549 46.498,15.425 46.347,15.176 ZM49.345,31.939 C49.525,31.756 49.740,31.608 49.989,31.499 C50.237,31.393 50.502,31.338 50.785,31.338 C51.066,31.338 51.333,31.393 51.582,31.499 C51.830,31.608 52.047,31.756 52.233,31.939 C52.415,32.124 52.561,32.341 52.664,32.590 C52.765,32.838 52.818,33.106 52.818,33.386 C52.818,33.680 52.765,33.947 52.664,34.191 C52.561,34.434 52.415,34.649 52.233,34.834 C52.047,35.019 51.830,35.162 51.582,35.265 C51.333,35.368 51.066,35.419 50.785,35.419 C50.502,35.419 50.237,35.368 49.989,35.265 C49.740,35.162 49.525,35.019 49.345,34.834 C49.168,34.649 49.025,34.434 48.922,34.191 C48.822,33.947 48.768,33.680 48.768,33.386 C48.768,33.106 48.822,32.838 48.922,32.590 C49.025,32.341 49.168,32.124 49.345,31.939 Z" id="path-1" class="cls-2" fill-rule="evenodd"/>
</svg>
