<?xml version="1.0" encoding="utf-8"?>
<!-- Generator: Adobe Illustrator 19.0.0, SVG Export Plug-In . SVG Version: 6.00 Build 0)  -->
<svg version="1.1" id="Layer_1" xmlns="http://www.w3.org/2000/svg" xmlns:xlink="http://www.w3.org/1999/xlink" x="0px" y="0px"
	 width="75px" height="75px" viewBox="-278 359.5 75 75" style="enable-background:new -278 359.5 75 75;" xml:space="preserve">
<style type="text/css">
	.st0{fill:#654A1D;}
</style>
<path id="path-1" class="st0" d="M-215,384.4l-1.5-2.6l7-4.1l1.5,2.6L-215,384.4z M-213.5,423.3v1.6h3.6v8.1h-3v-5.1h-3.6v-4.6
	c0-0.3-0.2-0.5-0.5-0.5h-46.8c-0.3,0-0.5,0.2-0.5,0.5v4.6h-3.5v5.1h-3v-8.1h3.5v-1.6c0-2,1.5-3.5,3.5-3.5h46.8
	C-215.1,419.8-213.5,421.3-213.5,423.3z M-226.5,411.3v3c-5.4,0-9.9-5-9.9-11.2s4.4-11.2,9.9-11.2v3c-3.8,0-6.8,3.7-6.8,8.2
	C-233.3,407.6-230.3,411.3-226.5,411.3z M-254.5,395v-3c5.4,0,9.8,5,9.8,11.1c0,6.2-4.4,11.2-9.8,11.2l0-3c3.8,0,6.8-3.7,6.8-8.2
	C-247.7,398.7-250.7,395-254.5,395z M-221.9,398.2c0-10.1-8.3-18.3-18.5-18.3c-10.2,0-18.5,8.2-18.5,18.3v19.4h-3v-19.4
	c0-11.8,9.7-21.3,21.5-21.3c11.9,0,21.5,9.6,21.5,21.3v19.4h-3V398.2z M-227.4,372.2l4-7l2.6,1.5l-4,7L-227.4,372.2z M-242,361h3
	v8.1h-3V361z M-260.2,366.6l2.6-1.5l4,7l-2.6,1.5L-260.2,366.6z M-273,380.3l1.5-2.6l7,4.1l-1.5,2.6L-273,380.3z M-222.3,432.5
	l-36.2,0.5l0-3l36.2-0.5L-222.3,432.5z"/>
</svg>
