<svg xmlns="http://www.w3.org/2000/svg" xmlns:xlink="http://www.w3.org/1999/xlink" preserveAspectRatio="xMidYMid" width="79" height="68" viewBox="0 0 79 68">
  <defs>
    <style>

      .cls-2 {
        fill: #654a1d;
      }
    </style>
  </defs>
  <path d="M0.000,68.018 C0.000,68.018 39.499,0.008 39.499,0.008 C39.499,0.008 78.999,68.018 78.999,68.018 C78.999,68.018 0.000,68.018 0.000,68.018 ZM6.935,64.038 C6.935,64.038 72.064,64.038 72.064,64.038 C72.064,64.038 39.499,7.968 39.499,7.968 C39.499,7.968 6.935,64.038 6.935,64.038 ZM42.149,56.684 C42.002,57.027 41.798,57.329 41.538,57.587 C41.277,57.846 40.970,58.050 40.617,58.195 C40.263,58.338 39.887,58.411 39.487,58.411 C39.088,58.411 38.713,58.338 38.359,58.195 C38.007,58.050 37.703,57.846 37.450,57.587 C37.197,57.329 36.997,57.027 36.852,56.684 C36.706,56.339 36.633,55.963 36.633,55.549 C36.633,55.152 36.706,54.780 36.852,54.428 C36.997,54.077 37.197,53.772 37.450,53.513 C37.703,53.252 38.007,53.047 38.359,52.894 C38.713,52.742 39.088,52.665 39.487,52.665 C39.887,52.665 40.263,52.742 40.617,52.894 C40.970,53.047 41.277,53.252 41.538,53.513 C41.798,53.772 42.002,54.077 42.149,54.428 C42.295,54.780 42.366,55.152 42.366,55.549 C42.366,55.963 42.295,56.339 42.149,56.684 ZM41.376,42.351 C41.332,43.016 41.273,43.694 41.204,44.389 C41.135,45.084 41.054,45.828 40.962,46.621 C40.962,46.621 38.175,46.621 38.175,46.621 C38.084,45.828 38.003,45.084 37.934,44.389 C37.864,43.694 37.806,43.016 37.761,42.351 C37.714,41.688 37.681,41.028 37.658,40.371 C37.634,39.715 37.623,39.044 37.623,38.357 C37.623,38.357 37.623,25.261 37.623,25.261 C37.623,25.261 41.515,25.261 41.515,25.261 C41.515,25.261 41.515,38.357 41.515,38.357 C41.515,39.044 41.504,39.715 41.480,40.371 C41.457,41.028 41.423,41.688 41.376,42.351 Z" id="path-1" class="cls-2" fill-rule="evenodd"/>
</svg>
