<?xml version="1.0" encoding="utf-8"?>
<!-- Generator: Adobe Illustrator 17.1.0, SVG Export Plug-In . SVG Version: 6.00 Build 0)  -->
<!DOCTYPE svg PUBLIC "-//W3C//DTD SVG 1.1//EN" "http://www.w3.org/Graphics/SVG/1.1/DTD/svg11.dtd">

<svg version="1.1" id="Layer_1" xmlns="http://www.w3.org/2000/svg" xmlns:xlink="http://www.w3.org/1999/xlink" x="0px" y="0px"
	 viewBox="0 0 130 130" enable-background="new 0 0 130 130" xml:space="preserve">
	<g>

		<!--<path stroke="black" fill="none" stroke-width="4" stroke-miterlimit="4" d="M19.182,33.053v63.895
			c0,2.238,1.814,4.053,4.053,4.053h101.554c2.238,0,4.053-1.814,4.053-4.053V33.053c0-2.238-1.814-4.053-4.053-4.053H23.235
			C20.997,29,19.182,30.814,19.182,33.053z"/>-->
	
		<rect x="18" y="27.053"  width="111" height="4" />
		<rect x="18" y="98.554"  width="111" height="4" />
		<rect x="18" y="31.053"  width="4" height="70.554" />
		<rect x="125" y="31.053"  width="4" height="70.554" />
			
		<rect x="0" y="44.565" width="12.111" height="4"/>
		<rect x="0" y="81.435" width="12.111" height="4"/>		
		<rect x="0" y="48.565" width="4" height="32.870"/>

		<rect x="31.573" y="41.093" width="13.563" height="47.814"/> 
		<rect x="56.079" y="41.093" width="13.563" height="47.814"/>
		<rect x="80.585" y="41.093" width="13.563" height="47.814"/>
		<rect x="105.091" y="41.093" width="13.563" height="47.814"/>
	</g>
</svg>
