<svg xmlns="http://www.w3.org/2000/svg" xmlns:xlink="http://www.w3.org/1999/xlink" preserveAspectRatio="xMidYMid" width="184" height="184" viewBox="0 0 184 184">
  <defs>
    <style>

      .cls-2 {
        fill: #654a1d;
      }
    </style>
  </defs>
  <path d="M159.970,61.580 C159.970,61.580 157.135,58.747 157.135,58.747 C157.135,58.747 178.327,37.548 178.327,37.548 C178.327,37.548 146.446,5.667 146.446,5.667 C146.446,5.667 125.255,26.866 125.255,26.866 C125.255,26.866 122.421,24.033 122.421,24.033 C122.421,24.033 146.446,-0.001 146.446,-0.001 C146.446,-0.001 183.994,37.547 183.994,37.547 C183.994,37.547 159.970,61.580 159.970,61.580 ZM168.291,84.825 C168.291,89.128 166.616,93.173 163.573,96.216 C163.573,96.216 96.218,163.571 96.218,163.571 C93.176,166.614 89.130,168.289 84.827,168.289 C80.524,168.289 76.479,166.614 73.436,163.571 C73.436,163.571 16.832,106.967 16.832,106.967 C10.551,100.686 10.551,90.466 16.832,84.185 C16.832,84.185 84.187,16.830 84.187,16.830 C87.230,13.788 91.275,12.112 95.578,12.112 C99.881,12.112 103.927,13.788 106.969,16.830 C106.969,16.830 163.573,73.434 163.573,73.434 C166.616,76.477 168.291,80.522 168.291,84.825 ZM104.135,19.664 C101.850,17.378 98.811,16.120 95.578,16.120 C92.346,16.120 89.307,17.378 87.021,19.664 C87.021,19.664 19.666,87.019 19.666,87.019 C14.948,91.737 14.948,99.415 19.666,104.134 C19.666,104.134 76.270,160.737 76.270,160.737 C78.555,163.023 81.595,164.282 84.827,164.282 C88.060,164.282 91.099,163.023 93.385,160.737 C93.385,160.737 160.739,93.382 160.739,93.382 C163.025,91.097 164.284,88.057 164.284,84.825 C164.284,81.593 163.025,78.554 160.739,76.268 C160.739,76.268 104.135,19.664 104.135,19.664 ZM110.433,99.839 C110.433,99.839 105.190,114.529 105.190,114.529 C105.190,114.529 101.962,106.334 101.962,106.334 C101.962,106.334 98.901,106.343 98.901,106.343 C98.901,106.343 97.073,96.040 97.073,96.040 C97.073,96.040 94.589,106.357 94.589,106.357 C94.589,106.357 90.875,106.368 90.875,106.368 C90.875,106.368 90.261,104.743 90.261,104.743 C90.261,104.743 86.592,109.393 86.592,109.393 C86.592,109.393 84.461,106.388 84.461,106.388 C84.461,106.388 83.896,106.390 83.896,106.390 C83.896,106.390 78.148,127.625 78.148,127.625 C83.744,132.526 88.585,136.241 90.711,137.828 C95.234,134.536 111.919,121.986 122.424,108.555 C122.424,108.555 125.581,111.024 125.581,111.024 C113.023,127.078 92.701,141.348 91.842,141.948 C91.842,141.948 90.680,142.759 90.680,142.759 C90.680,142.759 89.528,141.933 89.528,141.933 C89.102,141.628 83.755,137.772 76.978,131.946 C76.978,131.946 76.956,132.029 76.956,132.029 C76.956,132.029 76.948,131.920 76.948,131.920 C70.422,126.309 62.575,118.876 56.506,111.014 C56.506,111.014 59.679,108.565 59.679,108.565 C64.606,114.948 70.857,121.118 76.542,126.203 C76.542,126.203 73.784,87.313 73.784,87.313 C73.784,87.313 71.726,106.428 71.726,106.428 C71.726,106.428 67.508,106.441 67.508,106.441 C67.508,106.441 64.678,103.007 64.678,103.007 C64.678,103.007 62.167,106.459 62.167,106.459 C62.167,106.459 46.322,106.489 46.322,106.489 C46.322,106.489 46.314,102.482 46.314,102.482 C46.314,102.482 60.123,102.456 60.123,102.456 C60.123,102.456 62.216,99.580 62.216,99.580 C62.756,98.840 63.622,98.382 64.536,98.353 C65.458,98.327 66.351,98.735 66.932,99.441 C66.932,99.441 68.272,101.068 68.272,101.068 C68.272,101.068 71.028,75.477 71.028,75.477 C71.192,73.958 72.528,72.794 74.046,72.814 C75.607,72.845 76.862,74.037 76.970,75.588 C76.970,75.588 79.277,108.117 79.277,108.117 C79.277,108.117 80.233,104.588 80.233,104.588 C80.584,103.295 81.764,102.389 83.103,102.385 C83.103,102.385 84.979,102.379 84.979,102.379 C85.602,102.380 86.147,102.554 86.632,102.873 C86.632,102.873 88.237,100.838 88.237,100.838 C88.898,99.999 89.967,99.576 91.026,99.736 C91.367,99.789 91.690,99.899 91.984,100.056 C91.984,100.056 94.325,90.333 94.325,90.333 C94.652,88.964 95.910,88.001 97.321,88.049 C98.723,88.092 99.920,89.129 100.162,90.515 C100.162,90.515 102.258,102.325 102.258,102.325 C102.258,102.325 102.651,102.324 102.651,102.324 C102.654,102.324 102.658,102.324 102.661,102.324 C103.538,102.324 104.362,102.719 104.920,103.364 C104.920,103.364 107.678,95.637 107.678,95.637 C108.120,94.401 109.295,93.608 110.586,93.659 C111.823,93.681 112.945,94.516 113.332,95.738 C113.332,95.738 115.419,102.285 115.419,102.285 C115.419,102.285 135.711,102.227 135.711,102.227 C135.711,102.227 135.723,106.234 135.723,106.234 C135.723,106.234 112.493,106.300 112.493,106.300 C112.493,106.300 110.433,99.839 110.433,99.839 ZM128.729,98.729 C130.383,95.284 131.231,92.154 131.248,89.426 C131.303,80.643 128.904,74.093 124.118,69.957 C119.364,65.850 113.627,65.373 111.381,65.359 C96.506,65.286 93.065,82.153 93.046,85.264 C93.046,85.264 89.038,85.238 89.038,85.238 C89.052,83.105 88.035,78.034 85.250,73.510 C81.838,67.971 77.029,65.143 70.956,65.105 C68.712,65.091 62.968,65.494 58.162,69.541 C53.323,73.616 50.842,80.135 50.787,88.918 C50.768,91.792 51.650,95.091 53.408,98.724 C53.408,98.724 49.800,100.469 49.800,100.469 C47.773,96.279 46.757,92.384 46.779,88.893 C46.842,78.883 49.803,71.341 55.580,66.476 C61.406,61.570 68.295,61.082 70.981,61.097 C78.423,61.144 84.537,64.710 88.662,71.409 C89.666,73.039 90.470,74.730 91.101,76.367 C93.992,69.244 100.227,61.314 111.407,61.352 C114.097,61.369 120.975,61.946 126.738,66.925 C132.453,71.863 135.318,79.441 135.255,89.451 C135.234,92.776 134.254,96.482 132.341,100.464 C132.341,100.464 128.729,98.729 128.729,98.729 ZM26.864,125.249 C26.864,125.249 5.665,146.448 5.665,146.448 C5.665,146.448 37.553,178.329 37.553,178.329 C37.553,178.329 58.745,157.138 58.745,157.138 C58.745,157.138 61.578,159.971 61.578,159.971 C61.578,159.971 37.554,183.996 37.554,183.996 C37.554,183.996 -0.003,146.448 -0.003,146.448 C-0.003,146.448 24.030,122.415 24.030,122.415 C24.030,122.415 26.864,125.249 26.864,125.249 Z" id="path-1" class="cls-2" fill-rule="evenodd"/>
</svg>
