<svg xmlns="http://www.w3.org/2000/svg" xmlns:xlink="http://www.w3.org/1999/xlink" preserveAspectRatio="xMidYMid" width="68" height="68" viewBox="0 0 68 68">
  <defs>
    <style>

      .cls-2 {
        fill: #654a1d;
      }
    </style>
  </defs>
  <path d="M58.042,58.042 C51.620,64.463 43.082,68.000 34.000,68.000 C24.918,68.000 16.380,64.463 9.958,58.042 C3.537,51.620 0.000,43.082 0.000,34.000 C0.000,24.918 3.537,16.380 9.958,9.958 C16.380,3.537 24.918,-0.000 34.000,-0.000 C43.082,-0.000 51.620,3.537 58.042,9.958 C64.463,16.380 68.000,24.918 68.000,34.000 C68.000,43.082 64.463,51.620 58.042,58.042 ZM55.213,12.787 C49.547,7.121 42.013,4.000 34.000,4.000 C25.987,4.000 18.453,7.121 12.787,12.787 C7.121,18.453 4.000,25.987 4.000,34.000 C4.000,42.013 7.121,49.547 12.787,55.213 C18.453,60.879 25.987,64.000 34.000,64.000 C42.013,64.000 49.547,60.879 55.213,55.213 C60.879,49.547 64.000,42.013 64.000,34.000 C64.000,25.987 60.879,18.453 55.213,12.787 ZM26.929,50.971 C26.929,50.971 11.372,35.414 11.372,35.414 C11.372,35.414 14.200,32.586 14.200,32.586 C14.200,32.586 26.929,45.314 26.929,45.314 C26.929,45.314 53.800,18.443 53.800,18.443 C53.800,18.443 56.628,21.271 56.628,21.271 C56.628,21.271 26.929,50.971 26.929,50.971 Z" id="path-1" class="cls-2" fill-rule="evenodd"/>
</svg>
