<svg xmlns="http://www.w3.org/2000/svg" xmlns:xlink="http://www.w3.org/1999/xlink" preserveAspectRatio="xMidYMid" width="140" height="148" viewBox="0 0 140 148">
  <defs>
    <style>

      .cls-2 {
        fill: #654a1d;
      }
    </style>
  </defs>
  <path d="M136.005,46.037 C136.004,34.809 131.638,24.252 123.710,16.312 C115.783,8.373 105.242,4.000 94.030,4.000 C94.030,4.000 94.030,-0.000 94.030,-0.000 C106.309,0.000 117.852,4.789 126.535,13.484 C135.217,22.179 139.998,33.740 139.999,46.037 C139.999,46.037 136.005,46.037 136.005,46.037 ZM118.502,67.948 C118.502,67.948 118.502,141.646 118.502,141.646 C118.502,145.150 115.656,148.000 112.158,148.000 C112.158,148.000 6.340,148.000 6.340,148.000 C2.842,148.000 -0.004,145.150 -0.004,141.646 C-0.004,141.646 -0.004,67.948 -0.004,67.948 C-0.004,64.445 2.842,61.595 6.340,61.595 C6.340,61.595 20.533,61.595 20.533,61.595 C20.533,61.595 20.533,65.595 20.533,65.595 C20.533,65.595 6.340,65.595 6.340,65.595 C5.044,65.595 3.990,66.651 3.990,67.948 C3.990,67.948 3.990,141.646 3.990,141.646 C3.990,142.944 5.044,144.000 6.340,144.000 C6.340,144.000 112.158,144.000 112.158,144.000 C113.454,144.000 114.508,142.944 114.508,141.646 C114.508,141.646 114.508,67.948 114.508,67.948 C114.508,66.651 113.454,65.595 112.158,65.595 C112.158,65.595 83.516,65.595 83.516,65.595 C83.516,65.595 83.516,61.595 83.516,61.595 C83.516,61.595 112.158,61.595 112.158,61.595 C115.656,61.595 118.502,64.445 118.502,67.948 ZM71.504,109.708 C71.504,109.708 32.544,109.708 32.544,109.708 C29.906,109.708 27.759,107.558 27.759,104.916 C27.759,104.916 27.759,34.953 27.759,34.953 C27.759,32.310 29.906,30.161 32.544,30.161 C32.544,30.161 71.504,30.161 71.504,30.161 C74.143,30.161 76.289,32.310 76.289,34.953 C76.289,34.953 76.289,104.916 76.289,104.916 C76.289,107.558 74.143,109.708 71.504,109.708 ZM52.024,102.267 C52.496,102.267 52.880,101.882 52.880,101.410 C52.880,100.937 52.496,100.553 52.024,100.553 C51.552,100.553 51.168,100.937 51.168,101.410 C51.168,101.882 51.552,102.267 52.024,102.267 ZM72.295,34.953 C72.295,34.516 71.940,34.161 71.504,34.161 C71.504,34.161 32.544,34.161 32.544,34.161 C32.108,34.161 31.753,34.516 31.753,34.953 C31.753,34.953 31.753,104.916 31.753,104.916 C31.753,105.353 32.108,105.708 32.544,105.708 C32.544,105.708 49.814,105.708 49.814,105.708 C48.254,104.899 47.174,103.286 47.174,101.410 C47.174,100.032 47.757,98.792 48.680,97.907 C48.680,97.907 34.551,97.907 34.551,97.907 C34.551,97.907 34.551,41.961 34.551,41.961 C34.551,41.961 69.498,41.961 69.498,41.961 C69.498,41.961 69.498,97.907 69.498,97.907 C69.498,97.907 55.368,97.907 55.368,97.907 C56.292,98.792 56.874,100.032 56.874,101.410 C56.874,103.286 55.794,104.899 54.235,105.708 C54.235,105.708 71.504,105.708 71.504,105.708 C71.940,105.708 72.295,105.353 72.295,104.916 C72.295,104.916 72.295,34.953 72.295,34.953 ZM65.504,93.907 C65.504,93.907 65.504,45.961 65.504,45.961 C65.504,45.961 38.545,45.961 38.545,45.961 C38.545,45.961 38.545,93.907 38.545,93.907 C38.545,93.907 65.504,93.907 65.504,93.907 ZM46.042,36.656 C46.042,36.656 58.006,36.656 58.006,36.656 C58.006,36.656 58.006,40.656 58.006,40.656 C58.006,40.656 46.042,40.656 46.042,40.656 C46.042,40.656 46.042,36.656 46.042,36.656 ZM12.545,136.839 C12.545,136.839 105.953,136.839 105.953,136.839 C105.953,136.839 105.953,72.756 105.953,72.756 C105.953,72.756 83.516,72.756 83.516,72.756 C83.516,72.756 83.516,68.756 83.516,68.756 C83.516,68.756 109.947,68.756 109.947,68.756 C109.947,68.756 109.947,140.839 109.947,140.839 C109.947,140.839 8.551,140.839 8.551,140.839 C8.551,140.839 8.551,68.756 8.551,68.756 C8.551,68.756 20.533,68.756 20.533,68.756 C20.533,68.756 20.533,72.756 20.533,72.756 C20.533,72.756 12.545,72.756 12.545,72.756 C12.545,72.756 12.545,136.839 12.545,136.839 ZM106.690,46.037 C106.690,42.651 105.373,39.467 102.982,37.072 C100.591,34.677 97.412,33.358 94.030,33.358 C94.030,33.358 94.030,29.358 94.030,29.358 C98.479,29.358 102.661,31.093 105.806,34.244 C108.952,37.394 110.684,41.582 110.684,46.037 C110.684,46.037 106.690,46.037 106.690,46.037 ZM94.030,17.945 C94.030,17.945 94.030,13.945 94.030,13.945 C102.589,13.945 110.636,17.283 116.689,23.345 C122.741,29.406 126.074,37.465 126.074,46.037 C126.074,46.037 122.080,46.037 122.080,46.037 C122.080,38.534 119.162,31.479 113.864,26.173 C108.566,20.867 101.522,17.945 94.030,17.945 Z" id="path-1" class="cls-2" fill-rule="evenodd"/>
</svg>
