<svg xmlns="http://www.w3.org/2000/svg" xmlns:xlink="http://www.w3.org/1999/xlink" preserveAspectRatio="xMidYMid" width="140" height="147" viewBox="0 0 140 147">
  <defs>
    <style>

      .cls-2 {
        fill: #654a1d;
      }
    </style>
  </defs>
  <path d="M139.986,43.871 C139.986,43.871 137.150,46.692 137.150,46.692 C137.150,46.692 116.504,26.163 116.504,26.163 C116.504,26.163 95.859,46.692 95.859,46.692 C95.859,46.692 93.022,43.871 93.022,43.871 C93.022,43.871 113.668,23.342 113.668,23.342 C113.668,23.342 93.022,2.814 93.022,2.814 C93.022,2.814 95.859,-0.007 95.859,-0.007 C95.859,-0.007 116.504,20.522 116.504,20.522 C116.504,20.522 137.150,-0.007 137.150,-0.007 C137.150,-0.007 139.986,2.814 139.986,2.814 C139.986,2.814 119.341,23.342 119.341,23.342 C119.341,23.342 139.986,43.871 139.986,43.871 ZM119.020,67.169 C119.020,67.169 119.020,140.662 119.020,140.662 C119.020,144.156 116.162,146.999 112.648,146.999 C112.648,146.999 6.364,146.999 6.364,146.999 C2.851,146.999 -0.008,144.156 -0.008,140.662 C-0.008,140.662 -0.008,67.169 -0.008,67.169 C-0.008,63.675 2.851,60.833 6.364,60.833 C6.364,60.833 20.620,60.833 20.620,60.833 C20.620,60.833 20.620,64.822 20.620,64.822 C20.620,64.822 6.364,64.822 6.364,64.822 C5.063,64.822 4.004,65.875 4.004,67.169 C4.004,67.169 4.004,140.662 4.004,140.662 C4.004,141.957 5.063,143.010 6.364,143.010 C6.364,143.010 112.648,143.010 112.648,143.010 C113.950,143.010 115.009,141.957 115.009,140.662 C115.009,140.662 115.009,67.169 115.009,67.169 C115.009,65.875 113.950,64.822 112.648,64.822 C112.648,64.822 83.880,64.822 83.880,64.822 C83.880,64.822 83.880,60.833 83.880,60.833 C83.880,60.833 112.648,60.833 112.648,60.833 C116.162,60.833 119.020,63.675 119.020,67.169 ZM71.816,108.813 C71.816,108.813 32.684,108.813 32.684,108.813 C30.034,108.813 27.878,106.669 27.878,104.034 C27.878,104.034 27.878,34.265 27.878,34.265 C27.878,31.630 30.034,29.486 32.684,29.486 C32.684,29.486 71.816,29.486 71.816,29.486 C74.466,29.486 76.622,31.630 76.622,34.265 C76.622,34.265 76.622,104.034 76.622,104.034 C76.622,106.669 74.466,108.813 71.816,108.813 ZM52.250,101.392 C52.724,101.392 53.110,101.009 53.110,100.538 C53.110,100.066 52.724,99.683 52.250,99.683 C51.776,99.683 51.390,100.066 51.390,100.538 C51.390,101.009 51.776,101.392 52.250,101.392 ZM72.610,34.265 C72.610,33.829 72.254,33.475 71.816,33.475 C71.816,33.475 32.684,33.475 32.684,33.475 C32.246,33.475 31.890,33.829 31.890,34.265 C31.890,34.265 31.890,104.034 31.890,104.034 C31.890,104.469 32.246,104.824 32.684,104.824 C32.684,104.824 50.029,104.824 50.029,104.824 C48.463,104.017 47.379,102.409 47.379,100.538 C47.379,99.163 47.963,97.927 48.891,97.045 C48.891,97.045 34.699,97.045 34.699,97.045 C34.699,97.045 34.699,41.254 34.699,41.254 C34.699,41.254 69.800,41.254 69.800,41.254 C69.800,41.254 69.800,97.045 69.800,97.045 C69.800,97.045 55.609,97.045 55.609,97.045 C56.536,97.927 57.121,99.163 57.121,100.538 C57.121,102.409 56.037,104.017 54.470,104.824 C54.470,104.824 71.816,104.824 71.816,104.824 C72.254,104.824 72.610,104.469 72.610,104.034 C72.610,104.034 72.610,34.265 72.610,34.265 ZM65.789,93.056 C65.789,93.056 65.789,45.243 65.789,45.243 C65.789,45.243 38.711,45.243 38.711,45.243 C38.711,45.243 38.711,93.056 38.711,93.056 C38.711,93.056 65.789,93.056 65.789,93.056 ZM46.242,35.963 C46.242,35.963 58.258,35.963 58.258,35.963 C58.258,35.963 58.258,39.952 58.258,39.952 C58.258,39.952 46.242,39.952 46.242,39.952 C46.242,39.952 46.242,35.963 46.242,35.963 ZM12.597,135.868 C12.597,135.868 106.416,135.868 106.416,135.868 C106.416,135.868 106.416,71.963 106.416,71.963 C106.416,71.963 83.880,71.963 83.880,71.963 C83.880,71.963 83.880,67.975 83.880,67.975 C83.880,67.975 110.427,67.975 110.427,67.975 C110.427,67.975 110.427,139.857 110.427,139.857 C110.427,139.857 8.585,139.857 8.585,139.857 C8.585,139.857 8.585,67.975 8.585,67.975 C8.585,67.975 20.620,67.975 20.620,67.975 C20.620,67.975 20.620,71.963 20.620,71.963 C20.620,71.963 12.597,71.963 12.597,71.963 C12.597,71.963 12.597,135.868 12.597,135.868 Z" id="path-1" class="cls-2" fill-rule="evenodd"/>
</svg>
