<svg xmlns="http://www.w3.org/2000/svg" xmlns:xlink="http://www.w3.org/1999/xlink" preserveAspectRatio="xMidYMid" width="138" height="138" viewBox="0 0 138 138">
  <defs>
    <style>
      .cls-1 {
        fill: #fff;
        filter: url(#color-overlay-1);
        fill-rule: evenodd;
      }
    </style>

    <filter id="color-overlay-1" filterUnits="userSpaceOnUse">
      <feFlood flood-color="#413b3b"/>
      <feComposite operator="in" in2="SourceGraphic"/>
      <feBlend in2="SourceGraphic" result="solidFill"/>
    </filter>
  </defs>
  <path d="M121.898,93.953 C111.502,104.348 97.679,110.073 82.975,110.073 C68.899,110.073 55.638,104.814 45.410,95.244 L2.647,138.002 L-0.001,135.354 L42.762,92.597 C33.191,82.369 27.931,69.110 27.931,55.035 C27.931,40.334 33.657,26.513 44.054,16.117 C54.450,5.722 68.273,-0.003 82.975,-0.003 C97.679,-0.003 111.502,5.722 121.898,16.117 C143.359,37.577 143.359,72.494 121.898,93.953 ZM119.250,18.765 C109.561,9.077 96.678,3.742 82.975,3.742 C69.273,3.742 56.391,9.077 46.702,18.765 C37.012,28.453 31.676,41.334 31.676,55.035 C31.676,68.736 37.012,81.617 46.702,91.305 C56.391,100.993 69.273,106.328 82.975,106.328 C96.678,106.328 109.561,100.993 119.250,91.305 C139.251,71.306 139.251,38.764 119.250,18.765 ZM109.271,63.097 L100.074,78.991 L93.034,58.229 L85.054,74.903 L79.052,40.184 L71.769,93.878 L63.308,52.384 L57.793,62.971 L45.291,62.971 L45.291,59.226 L55.521,59.226 L64.868,41.285 L71.027,71.491 L78.606,15.614 L86.744,62.695 L93.626,48.315 L100.968,69.968 L107.111,59.353 L121.014,59.353 L121.014,63.097 L109.271,63.097 Z" class="cls-1"/>
</svg>
