<svg xmlns="http://www.w3.org/2000/svg" xmlns:xlink="http://www.w3.org/1999/xlink" preserveAspectRatio="xMidYMid" width="101" height="150" viewBox="0 0 101 150">
  <defs>
    <style>

      .cls-2 {
        fill: #654a1d;
      }
    </style>
  </defs>
  <path d="M50.510,149.990 C22.661,149.990 0.003,127.837 0.003,100.609 C0.003,74.131 46.875,5.309 48.871,2.393 C48.871,2.393 50.510,-0.004 50.510,-0.004 C50.510,-0.004 52.149,2.393 52.149,2.393 C54.145,5.309 101.012,74.131 101.012,100.609 C101.012,127.837 78.357,149.990 50.510,149.990 ZM50.510,7.106 C42.072,19.746 3.986,78.053 3.986,100.609 C3.986,125.625 24.856,145.977 50.510,145.977 C76.161,145.977 97.030,125.625 97.030,100.609 C97.030,78.053 58.948,19.746 50.510,7.106 ZM61.639,99.666 C61.639,99.391 61.696,99.109 61.804,98.820 C61.909,98.533 62.084,98.265 62.329,98.018 C62.329,98.018 72.206,88.023 72.206,88.023 C73.025,87.185 73.770,86.380 74.442,85.605 C75.118,84.831 75.695,84.056 76.175,83.274 C76.658,82.493 77.025,81.703 77.284,80.901 C77.543,80.099 77.673,79.242 77.673,78.332 C77.673,77.420 77.529,76.621 77.242,75.935 C76.955,75.249 76.560,74.682 76.059,74.234 C75.555,73.786 74.967,73.449 74.292,73.225 C73.620,73.001 72.895,72.888 72.118,72.888 C71.345,72.888 70.627,73.005 69.969,73.236 C69.308,73.467 68.723,73.789 68.216,74.200 C67.705,74.613 67.274,75.100 66.924,75.664 C66.571,76.228 66.326,76.849 66.182,77.529 C66.067,77.947 65.895,78.252 65.664,78.439 C65.433,78.628 65.132,78.721 64.761,78.721 C64.688,78.721 64.614,78.718 64.534,78.711 C64.457,78.704 64.366,78.693 64.264,78.677 C64.264,78.677 62.266,78.332 62.266,78.332 C62.465,76.914 62.854,75.660 63.428,74.569 C64.002,73.477 64.730,72.564 65.612,71.827 C66.494,71.090 67.505,70.529 68.646,70.146 C69.784,69.764 71.016,69.572 72.335,69.572 C73.641,69.572 74.859,69.767 75.993,70.157 C77.127,70.547 78.107,71.114 78.929,71.859 C79.755,72.604 80.403,73.511 80.879,74.579 C81.351,75.650 81.589,76.865 81.589,78.222 C81.589,79.379 81.414,80.450 81.071,81.432 C80.728,82.414 80.259,83.357 79.671,84.262 C79.083,85.165 78.408,86.039 77.638,86.884 C76.871,87.730 76.059,88.594 75.198,89.476 C75.198,89.476 67.085,97.845 67.085,97.845 C67.659,97.686 68.240,97.559 68.828,97.466 C69.416,97.372 69.983,97.325 70.529,97.325 C70.529,97.325 80.858,97.325 80.858,97.325 C81.271,97.325 81.603,97.448 81.845,97.693 C82.090,97.938 82.212,98.257 82.212,98.647 C82.212,98.647 82.212,100.989 82.212,100.989 C82.212,100.989 61.639,100.989 61.639,100.989 C61.639,100.989 61.639,99.666 61.639,99.666 ZM51.616,119.696 C49.894,121.928 47.857,123.589 45.505,124.679 C43.156,125.771 40.640,126.316 37.959,126.316 C35.250,126.316 32.737,125.771 30.410,124.679 C28.086,123.589 26.063,121.928 24.341,119.696 C22.615,117.465 21.264,114.644 20.281,111.236 C19.294,107.827 18.804,103.791 18.804,99.130 C18.804,94.470 19.294,90.428 20.281,87.006 C21.264,83.585 22.615,80.753 24.341,78.508 C26.063,76.263 28.086,74.597 30.410,73.505 C32.737,72.416 35.250,71.869 37.959,71.869 C40.640,71.869 43.156,72.416 45.505,73.505 C47.857,74.597 49.894,76.263 51.616,78.508 C53.338,80.753 54.696,83.585 55.693,87.006 C56.691,90.428 57.188,94.470 57.188,99.130 C57.188,103.791 56.691,107.827 55.693,111.236 C54.696,114.644 53.338,117.465 51.616,119.696 ZM49.344,88.884 C48.669,86.120 47.759,83.895 46.614,82.208 C45.470,80.522 44.147,79.314 42.645,78.582 C41.144,77.850 39.583,77.485 37.959,77.485 C36.335,77.485 34.771,77.850 33.273,78.582 C31.771,79.314 30.452,80.522 29.321,82.208 C28.191,83.895 27.284,86.120 26.609,88.884 C25.933,91.648 25.594,95.064 25.594,99.130 C25.594,103.197 25.933,106.605 26.609,109.358 C27.284,112.110 28.191,114.328 29.321,116.014 C30.452,117.700 31.771,118.910 33.273,119.641 C34.771,120.371 36.335,120.738 37.959,120.738 C39.583,120.738 41.144,120.371 42.645,119.641 C44.147,118.910 45.470,117.700 46.614,116.014 C47.759,114.328 48.669,112.110 49.344,109.358 C50.020,106.605 50.359,103.197 50.359,99.130 C50.359,95.064 50.020,91.648 49.344,88.884 Z" id="path-1" class="cls-2" fill-rule="evenodd"/>
</svg>
