<svg xmlns="http://www.w3.org/2000/svg" xmlns:xlink="http://www.w3.org/1999/xlink" preserveAspectRatio="xMidYMid" width="72" height="72" viewBox="0 0 72 72">
  <defs>
    <style>

      .cls-2 {
        fill: #654a1d;
      }
    </style>
  </defs>
  <path d="M72.000,33.000 C72.000,33.000 39.000,33.000 39.000,33.000 C39.000,33.000 39.000,-0.000 39.000,-0.000 C39.000,-0.000 33.000,-0.000 33.000,-0.000 C33.000,-0.000 33.000,33.000 33.000,33.000 C33.000,33.000 -0.000,33.000 -0.000,33.000 C-0.000,33.000 -0.000,39.000 -0.000,39.000 C-0.000,39.000 33.000,39.000 33.000,39.000 C33.000,39.000 33.000,72.000 33.000,72.000 C33.000,72.000 39.000,72.000 39.000,72.000 C39.000,72.000 39.000,39.000 39.000,39.000 C39.000,39.000 72.000,39.000 72.000,39.000 C72.000,39.000 72.000,33.000 72.000,33.000 Z" id="path-1" class="cls-2" fill-rule="evenodd"/>
</svg>
