<svg xmlns="http://www.w3.org/2000/svg" xmlns:xlink="http://www.w3.org/1999/xlink" preserveAspectRatio="xMidYMid" width="168" height="148" viewBox="0 0 168 148">
  <defs>
    <style>

      .cls-2 {
        fill: #654a1d;
      }
    </style>
  </defs>
  <path d="M121.874,77.593 C121.874,77.593 121.149,77.874 121.149,77.874 C121.149,77.874 120.423,77.593 120.423,77.593 C117.556,76.481 114.785,75.304 112.187,74.094 C112.187,74.094 113.882,70.473 113.882,70.473 C116.180,71.543 118.621,72.588 121.149,73.584 C154.189,60.569 167.978,40.929 162.127,15.201 C161.046,10.445 158.709,7.172 155.181,5.471 C148.295,2.151 138.516,5.481 136.274,6.555 C136.274,6.555 134.540,2.952 134.540,2.952 C137.976,1.306 148.694,-2.095 156.924,1.872 C161.604,4.129 164.669,8.315 166.034,14.317 C172.434,42.463 157.577,63.752 121.874,77.593 ZM131.413,10.969 C131.413,10.969 128.263,3.090 128.263,3.090 C128.263,3.090 131.984,1.609 131.984,1.609 C131.984,1.609 135.134,9.488 135.134,9.488 C135.134,9.488 131.413,10.969 131.413,10.969 ZM107.942,9.314 C107.942,9.314 111.092,1.434 111.092,1.434 C111.092,1.434 114.812,2.915 114.812,2.915 C114.812,2.915 111.663,10.795 111.663,10.795 C111.663,10.795 107.942,9.314 107.942,9.314 ZM87.116,5.471 C83.589,7.172 81.252,10.445 80.171,15.201 C80.012,15.897 79.865,16.602 79.730,17.316 C79.730,17.316 75.794,16.577 75.794,16.577 C75.938,15.814 76.095,15.060 76.264,14.317 C77.629,8.315 80.694,4.129 85.374,1.872 C93.603,-2.095 104.322,1.306 107.757,2.952 C107.757,2.952 106.024,6.555 106.024,6.555 C103.782,5.481 94.004,2.151 87.116,5.471 ZM101.078,34.901 C108.043,43.596 110.989,56.079 108.583,66.704 C106.248,77.013 97.637,88.922 82.991,102.101 C82.991,102.101 80.309,99.134 80.309,99.134 C94.131,86.696 102.557,75.177 104.676,65.823 C106.824,56.337 104.183,45.179 97.949,37.396 C93.354,31.660 87.409,28.501 81.209,28.501 C65.187,28.501 56.718,37.749 56.718,55.246 C56.718,55.246 52.712,55.246 52.712,55.246 C52.712,37.749 44.242,28.501 28.217,28.501 C22.017,28.501 16.072,31.660 11.477,37.396 C5.242,45.179 2.602,56.337 4.750,65.823 C9.833,88.278 47.796,114.315 54.715,118.900 C56.785,117.530 61.629,114.246 67.486,109.755 C67.486,109.755 69.927,112.924 69.927,112.924 C61.989,119.011 55.855,122.934 55.793,122.973 C55.793,122.973 54.716,123.660 54.716,123.660 C54.716,123.660 53.638,122.974 53.638,122.974 C51.727,121.758 6.770,92.888 0.843,66.704 C-1.563,56.079 1.383,43.596 8.348,34.901 C13.719,28.196 20.775,24.504 28.217,24.504 C41.837,24.504 50.923,30.501 54.715,41.675 C58.506,30.501 67.591,24.504 81.209,24.504 C88.651,24.504 95.707,28.196 101.078,34.901 ZM53.042,93.028 C45.843,93.028 39.985,87.184 39.985,80.000 C39.985,72.816 45.843,66.972 53.042,66.972 C60.243,66.972 66.103,72.816 66.103,80.000 C66.103,87.184 60.243,93.028 53.042,93.028 ZM53.042,70.969 C48.051,70.969 43.991,75.020 43.991,80.000 C43.991,84.980 48.051,89.031 53.042,89.031 C58.035,89.031 62.097,84.980 62.097,80.000 C62.097,75.020 58.035,70.969 53.042,70.969 ZM65.989,90.200 C71.782,96.084 76.440,102.417 79.459,108.514 C80.591,110.802 81.578,113.791 82.622,116.957 C86.585,128.965 91.517,143.910 109.305,143.910 C120.538,143.910 129.194,141.108 134.337,135.808 C137.789,132.250 139.526,127.678 139.361,122.586 C139.175,116.869 133.861,111.306 128.721,105.927 C123.854,100.833 119.257,96.022 119.257,91.029 C119.257,91.029 119.257,80.873 119.257,80.873 C119.257,80.873 123.263,80.873 123.263,80.873 C123.263,80.873 123.263,91.029 123.263,91.029 C123.263,94.422 127.322,98.671 131.620,103.169 C137.015,108.816 143.129,115.216 143.365,122.457 C143.566,128.656 141.439,134.234 137.215,138.588 C131.300,144.684 121.649,147.907 109.305,147.907 C88.619,147.907 82.721,130.034 78.818,118.206 C77.775,115.047 76.875,112.319 75.867,110.285 C73.035,104.563 68.631,98.586 63.132,93.001 C63.132,93.001 65.989,90.200 65.989,90.200 Z" id="path-1" class="cls-2" fill-rule="evenodd"/>
</svg>
