<?xml version="1.0" encoding="utf-8"?>
<!-- Generator: Adobe Illustrator 19.0.0, SVG Export Plug-In . SVG Version: 6.00 Build 0)  -->
<svg version="1.1" id="Layer_1" xmlns="http://www.w3.org/2000/svg" xmlns:xlink="http://www.w3.org/1999/xlink" x="0px" y="0px"
	 width="75px" height="75px" viewBox="-268 359 75 75" style="enable-background:new -268 359 75 75;" xml:space="preserve">
<style type="text/css">
	.st0{fill:#654A1D;}
</style>
<path id="path-1" class="st0" d="M-268,434.3v-50.8h28.5v3H-265v44.8h69v-44.8h-25.5v-3h28.5v50.8H-268z M-227.7,400.9h23.8v3h-23.8
	V400.9z M-227.7,419.3v-3h16.2v3H-227.7z M-227.7,408.6h23.8v3h-23.8V408.6z M-235.5,391.8l-2.6-20.5h15.2l-2.6,20.5H-235.5z
	 M-234.7,374.3l1.8,14.5h4.8l1.8-14.5H-234.7z M-251.7,397.1c1.3-1.8,3.5-2.7,6.5-2.7c0,0,0,0,0,0c1.9,0,3.4,0.5,4.2,1.4
	c1.3,0.3,2.4,1.1,3.1,2.2c1.6,2.5,0.8,6.2,0.4,7.9c0.3,0.5,0.5,1.2,0.4,2c-0.2,1.6-0.8,2.5-1.4,2.9c-0.3,1.1-0.8,2.4-1.5,3.2v0.1
	c0,0.7,0,1.3,0,2c0.4,0.7,1.8,1.2,3.2,1.8c2.9,1.1,6.9,2.7,7.2,7.6l-3,0.2c-0.2-2.8-2.1-3.8-5.3-5c-2.1-0.8-4.2-1.7-5-3.7l-0.1-0.2
	l0-0.2c-0.1-1-0.1-1.7-0.1-2.5l0-1.6l0.7-0.4c0.3-0.3,0.9-1.5,1-2.5l0.1-1.2l1-0.1c0.1-0.1,0.1-0.4,0.2-0.8c0-0.1,0-0.1,0-0.1
	l-0.9-0.5l0.4-1.1c0.7-2,1-4.8,0.2-6.2c-0.2-0.3-0.6-0.8-1.6-0.9l-0.7-0.1l-0.4-0.6c-0.1-0.2-0.8-0.5-2.1-0.5c-2,0-3.3,0.6-4.1,1.6
	c-1,1.3-1.1,3.7-0.3,6.9l0.3,1.1l-0.8,0.5c0,0,0,0.1,0,0.1c0,0.4,0.1,0.6,0.2,0.8l1,0.1l0.1,1.2c0.1,1,0.7,2.1,1,2.5l0.7,0.4l0,1.6
	c0,0.8,0,1.6-0.1,2.5l0,0.2l-0.1,0.2c-0.8,2-2.9,2.9-5,3.7c-3.2,1.2-5.1,2.2-5.3,5l-3-0.2c0.3-4.9,4.3-6.5,7.2-7.6
	c1.4-0.5,2.8-1.1,3.2-1.8c0.1-0.7,0.1-1.3,0-2v0c-0.7-0.8-1.3-2-1.5-3.2c-0.6-0.4-1.2-1.3-1.4-2.9c-0.1-0.9,0.1-1.6,0.4-2.1
	C-253.6,402-253.3,399.1-251.7,397.1z"/>
</svg>
