<svg xmlns="http://www.w3.org/2000/svg" xmlns:xlink="http://www.w3.org/1999/xlink" preserveAspectRatio="xMidYMid" width="75" height="75" viewBox="0 0 75 75">
  <defs>
    <style>

      .cls-2 {
        fill: #654a1d;
      }
    </style>
  </defs>
  <path d="M46.800,75.000 C46.800,75.000 46.800,63.420 46.800,63.420 C46.800,63.420 49.800,63.420 49.800,63.420 C49.800,63.420 49.800,72.000 49.800,72.000 C49.800,72.000 72.000,72.000 72.000,72.000 C72.000,72.000 72.000,49.800 72.000,49.800 C72.000,49.800 63.420,49.800 63.420,49.800 C63.420,49.800 63.420,46.800 63.420,46.800 C63.420,46.800 75.000,46.800 75.000,46.800 C75.000,46.800 75.000,75.000 75.000,75.000 C75.000,75.000 46.800,75.000 46.800,75.000 ZM63.420,25.200 C63.420,25.200 72.000,25.200 72.000,25.200 C72.000,25.200 72.000,3.000 72.000,3.000 C72.000,3.000 49.800,3.000 49.800,3.000 C49.800,3.000 49.800,11.580 49.800,11.580 C49.800,11.580 46.800,11.580 46.800,11.580 C46.800,11.580 46.800,-0.000 46.800,-0.000 C46.800,-0.000 75.000,-0.000 75.000,-0.000 C75.000,-0.000 75.000,28.200 75.000,28.200 C75.000,28.200 63.420,28.200 63.420,28.200 C63.420,28.200 63.420,25.200 63.420,25.200 ZM25.200,3.000 C25.200,3.000 3.000,3.000 3.000,3.000 C3.000,3.000 3.000,25.200 3.000,25.200 C3.000,25.200 11.580,25.200 11.580,25.200 C11.580,25.200 11.580,28.200 11.580,28.200 C11.580,28.200 -0.000,28.200 -0.000,28.200 C-0.000,28.200 -0.000,-0.000 -0.000,-0.000 C-0.000,-0.000 28.200,-0.000 28.200,-0.000 C28.200,-0.000 28.200,11.580 28.200,11.580 C28.200,11.580 25.200,11.580 25.200,11.580 C25.200,11.580 25.200,3.000 25.200,3.000 ZM18.000,18.000 C18.000,18.000 57.000,18.000 57.000,18.000 C57.000,18.000 57.000,57.000 57.000,57.000 C57.000,57.000 18.000,57.000 18.000,57.000 C18.000,57.000 18.000,18.000 18.000,18.000 ZM21.000,54.000 C21.000,54.000 54.000,54.000 54.000,54.000 C54.000,54.000 54.000,21.000 54.000,21.000 C54.000,21.000 21.000,21.000 21.000,21.000 C21.000,21.000 21.000,54.000 21.000,54.000 ZM11.580,49.800 C11.580,49.800 3.000,49.800 3.000,49.800 C3.000,49.800 3.000,72.000 3.000,72.000 C3.000,72.000 25.200,72.000 25.200,72.000 C25.200,72.000 25.200,63.420 25.200,63.420 C25.200,63.420 28.200,63.420 28.200,63.420 C28.200,63.420 28.200,75.000 28.200,75.000 C28.200,75.000 -0.000,75.000 -0.000,75.000 C-0.000,75.000 -0.000,46.800 -0.000,46.800 C-0.000,46.800 11.580,46.800 11.580,46.800 C11.580,46.800 11.580,49.800 11.580,49.800 Z" id="path-1" class="cls-2" fill-rule="evenodd"/>
</svg>
