<svg xmlns="http://www.w3.org/2000/svg" xmlns:xlink="http://www.w3.org/1999/xlink" preserveAspectRatio="xMidYMid" width="75" height="75" viewBox="0 0 75 75">
  <defs>
    <style>

      .cls-2 {
        fill: #654a1d;
      }
    </style>
  </defs>
  <path d="M44.782,75.000 C44.782,75.000 30.218,75.000 30.218,75.000 C30.218,75.000 30.218,64.555 30.218,64.555 C27.872,63.925 25.628,62.995 23.520,61.778 C23.520,61.778 16.133,69.165 16.133,69.165 C16.133,69.165 5.835,58.867 5.835,58.867 C5.835,58.867 13.222,51.480 13.222,51.480 C12.005,49.372 11.075,47.128 10.445,44.782 C10.445,44.782 -0.000,44.782 -0.000,44.782 C-0.000,44.782 -0.000,30.218 -0.000,30.218 C-0.000,30.218 10.445,30.218 10.445,30.218 C11.075,27.873 12.005,25.628 13.222,23.520 C13.222,23.520 5.835,16.133 5.835,16.133 C5.835,16.133 16.133,5.835 16.133,5.835 C16.133,5.835 23.520,13.222 23.520,13.222 C25.628,12.005 27.872,11.075 30.218,10.445 C30.218,10.445 30.218,-0.000 30.218,-0.000 C30.218,-0.000 44.782,-0.000 44.782,-0.000 C44.782,-0.000 44.782,10.445 44.782,10.445 C47.128,11.075 49.373,12.005 51.480,13.222 C51.480,13.222 58.868,5.835 58.868,5.835 C58.868,5.835 69.166,16.133 69.166,16.133 C69.166,16.133 61.778,23.520 61.778,23.520 C62.995,25.628 63.925,27.872 64.555,30.218 C64.555,30.218 75.000,30.218 75.000,30.218 C75.000,30.218 75.000,44.782 75.000,44.782 C75.000,44.782 64.555,44.782 64.555,44.782 C63.925,47.128 62.995,49.372 61.778,51.480 C61.778,51.480 69.166,58.867 69.166,58.867 C69.166,58.867 58.868,69.165 58.868,69.165 C58.868,69.165 51.480,61.778 51.480,61.778 C49.372,62.995 47.128,63.925 44.782,64.555 C44.782,64.555 44.782,75.000 44.782,75.000 ZM33.218,72.000 C33.218,72.000 41.782,72.000 41.782,72.000 C41.782,72.000 41.782,62.175 41.782,62.175 C41.782,62.175 42.956,61.914 42.956,61.914 C45.781,61.286 48.455,60.178 50.904,58.620 C50.904,58.620 51.919,57.974 51.919,57.974 C51.919,57.974 58.868,64.923 58.868,64.923 C58.868,64.923 64.923,58.867 64.923,58.867 C64.923,58.867 57.974,51.919 57.974,51.919 C57.974,51.919 58.620,50.904 58.620,50.904 C60.177,48.455 61.286,45.781 61.914,42.956 C61.914,42.956 62.176,41.782 62.176,41.782 C62.176,41.782 72.000,41.782 72.000,41.782 C72.000,41.782 72.000,33.218 72.000,33.218 C72.000,33.218 62.176,33.218 62.176,33.218 C62.176,33.218 61.914,32.044 61.914,32.044 C61.286,29.219 60.177,26.545 58.620,24.097 C58.620,24.097 57.974,23.082 57.974,23.082 C57.974,23.082 64.923,16.133 64.923,16.133 C64.923,16.133 58.868,10.077 58.868,10.077 C58.868,10.077 51.919,17.026 51.919,17.026 C51.919,17.026 50.904,16.380 50.904,16.380 C48.455,14.823 45.781,13.714 42.956,13.086 C42.956,13.086 41.782,12.824 41.782,12.824 C41.782,12.824 41.782,3.000 41.782,3.000 C41.782,3.000 33.218,3.000 33.218,3.000 C33.218,3.000 33.218,12.824 33.218,12.824 C33.218,12.824 32.044,13.086 32.044,13.086 C29.219,13.714 26.545,14.823 24.096,16.380 C24.096,16.380 23.081,17.026 23.081,17.026 C23.081,17.026 16.133,10.077 16.133,10.077 C16.133,10.077 10.077,16.133 10.077,16.133 C10.077,16.133 17.026,23.082 17.026,23.082 C17.026,23.082 16.380,24.096 16.380,24.096 C14.823,26.545 13.714,29.219 13.086,32.044 C13.086,32.044 12.825,33.218 12.825,33.218 C12.825,33.218 3.000,33.218 3.000,33.218 C3.000,33.218 3.000,41.782 3.000,41.782 C3.000,41.782 12.825,41.782 12.825,41.782 C12.825,41.782 13.086,42.956 13.086,42.956 C13.714,45.780 14.823,48.455 16.380,50.904 C16.380,50.904 17.026,51.919 17.026,51.919 C17.026,51.919 10.077,58.867 10.077,58.867 C10.077,58.867 16.133,64.923 16.133,64.923 C16.133,64.923 23.081,57.974 23.081,57.974 C23.081,57.974 24.096,58.620 24.096,58.620 C26.545,60.178 29.219,61.286 32.044,61.914 C32.044,61.914 33.218,62.175 33.218,62.175 C33.218,62.175 33.218,72.000 33.218,72.000 ZM37.500,52.872 C29.024,52.872 22.128,45.976 22.128,37.500 C22.128,29.024 29.024,22.128 37.500,22.128 C45.976,22.128 52.872,29.024 52.872,37.500 C52.872,45.976 45.976,52.872 37.500,52.872 ZM37.500,25.128 C30.678,25.128 25.128,30.678 25.128,37.500 C25.128,44.322 30.678,49.872 37.500,49.872 C44.322,49.872 49.872,44.322 49.872,37.500 C49.872,30.678 44.322,25.128 37.500,25.128 Z" id="path-1" class="cls-2" fill-rule="evenodd"/>
</svg>
