<?xml version="1.0" encoding="utf-8"?>
<!-- Generator: Adobe Illustrator 19.0.0, SVG Export Plug-In . SVG Version: 6.00 Build 0)  -->
<svg version="1.1" id="Layer_1" xmlns="http://www.w3.org/2000/svg" xmlns:xlink="http://www.w3.org/1999/xlink" x="0px" y="0px"
	 width="152px" height="152px" viewBox="-230.5 321 152 152" style="enable-background:new -230.5 321 152 152;"
	 xml:space="preserve">
<style type="text/css">
	.st0{fill:#654A1D;}
</style>
<path id="path-1" class="st0" d="M-88.7,429.3l9.7,0l0,17.2l-9.7,0c-0.4,1.1-0.8,2.2-1.4,3.3l6.9,6.9l-12.1,12.1l-6.9-6.9
	c-1.1,0.5-2.2,1-3.3,1.4l0,9.7l-17.1,0l0-9.7c-1.1-0.4-2.2-0.8-3.3-1.4l-6.9,6.9l-12.1-12.1l6.9-6.9c-0.5-1.1-1-2.2-1.4-3.3l-9.7,0
	l0-17.2l9.7,0c0.4-1.1,0.8-2.2,1.4-3.3l-6.9-6.9l12.1-12.1l6.9,6.9c1.1-0.5,2.2-1,3.3-1.4l0-9.7l17.1,0l0,9.7
	c1.1,0.4,2.2,0.8,3.3,1.4l6.9-6.9l12.1,12.1l-6.9,6.9C-89.6,427-89.1,428.1-88.7,429.3z M-88.9,419.1l-6.5-6.5l-6.2,6.2l-0.3-0.2
	c-2.2-1.4-4.7-2.4-7.2-3l-0.4-0.1l0-8.8l-9.1,0l0,8.8l-0.4,0.1c-2.6,0.6-5,1.6-7.2,3l-0.3,0.2l-6.2-6.2l-6.5,6.5l6.2,6.2l-0.2,0.3
	c-1.4,2.2-2.4,4.7-3,7.2l-0.1,0.4l-8.8,0l0,9.2l8.8,0l0.1,0.4c0.6,2.6,1.6,5,3,7.3l0.2,0.3l-6.2,6.2l6.5,6.5l6.2-6.2l0.3,0.2
	c2.2,1.4,4.7,2.4,7.2,3l0.4,0.1l0,8.8l9.1,0l0-8.8l0.4-0.1c2.6-0.6,5-1.6,7.2-3l0.3-0.2l6.2,6.2l6.5-6.5l-6.2-6.2l0.2-0.3
	c1.4-2.2,2.4-4.7,3-7.2l0.1-0.4l8.8,0l0-9.2l-8.8,0l-0.1-0.4c-0.6-2.6-1.6-5-3-7.2l-0.2-0.3L-88.9,419.1z M-114.1,450.5
	L-114.1,450.5c-7,0-12.7-5.7-12.7-12.7c0-7,5.7-12.7,12.7-12.7c7,0,12.7,5.7,12.7,12.7C-101.4,444.9-107.1,450.5-114.1,450.5z
	 M-114.1,429.1c-4.8,0-8.7,3.9-8.7,8.7c0,4.8,3.9,8.7,8.7,8.7h0c4.8,0,8.7-3.9,8.7-8.7C-105.4,433.1-109.3,429.2-114.1,429.1z
	 M-139.5,377.3l13.2,5.6l-8.7,20.7l-13.2-5.6c-1.7,2-3.5,3.8-5.5,5.5l5.4,13.3l-20.8,8.4l-5.4-13.3c-2.6,0.2-5.2,0.2-7.8-0.1
	l-5.6,13.2l-20.6-8.8l5.6-13.2c-2-1.7-3.8-3.5-5.4-5.6l-13.2,5.4L-230,382l13.2-5.4c-0.2-2.6-0.2-5.2,0.1-7.8l-13.2-5.6l8.7-20.7
	l13.1,5.6c1.7-2,3.5-3.8,5.5-5.5l-5.4-13.3l20.8-8.4l5.4,13.3c2.6-0.2,5.2-0.2,7.8,0.1l5.6-13.2l20.6,8.8l-5.6,13.2
	c2,1.7,3.8,3.5,5.4,5.6l13.2-5.4l8.4,20.8l-13.2,5.4C-139.2,372.1-139.2,374.7-139.5,377.3z M-131.4,361.9l-5.4-13.4l-12.4,5
	l-0.2-0.3c-2.3-3.3-5.1-6.2-8.4-8.6l-0.3-0.2l5.2-12.4l-13.3-5.6l-5.2,12.4l-0.4-0.1c-3.9-0.7-8-0.8-12-0.1l-0.4,0.1l-5-12.5
	l-13.4,5.4l5,12.4l-0.3,0.2c-3.3,2.3-6.2,5.1-8.5,8.4l-0.2,0.3l-12.3-5.2l-5.6,13.3l12.3,5.2l-0.1,0.4c-0.7,4-0.8,8-0.1,12l0.1,0.4
	l-12.4,5l5.4,13.4l12.4-5l0.2,0.3c2.3,3.3,5.1,6.2,8.4,8.6l0.3,0.2l-5.2,12.4l13.3,5.6l5.2-12.4l0.4,0.1c3.9,0.7,8,0.8,12,0.1
	l0.4-0.1l5,12.4l13.4-5.4l-5-12.5l0.3-0.2c3.3-2.3,6.2-5.1,8.5-8.4l0.2-0.3l12.3,5.2l5.6-13.3l-12.3-5.2l0.1-0.4c0.7-4,0.8-8,0.1-12
	l-0.1-0.4L-131.4,361.9z M-178.1,392.1c-2.6,0-5-0.5-7.4-1.5c-4.7-2-8.3-5.7-10.2-10.4c-1.9-4.7-1.9-9.9,0.1-14.6
	c3-7,9.8-11.6,17.5-11.6c2.5,0,5,0.5,7.4,1.5c4.7,2,8.3,5.7,10.2,10.4c1.9,4.7,1.9,9.9-0.1,14.6
	C-163.6,387.5-170.5,392.1-178.1,392.1z M-172.2,359.2c-1.9-0.8-3.8-1.2-5.8-1.2c-6,0-11.5,3.6-13.8,9.2c-1.6,3.7-1.6,7.8-0.1,11.5
	c1.5,3.7,4.4,6.6,8,8.2c1.9,0.8,3.8,1.2,5.9,1.2c6,0,11.5-3.6,13.8-9.2C-161.1,371.3-164.6,362.4-172.2,359.2z"/>
</svg>
