<svg xmlns="http://www.w3.org/2000/svg" xmlns:xlink="http://www.w3.org/1999/xlink" preserveAspectRatio="xMidYMid" width="140" height="146" viewBox="0 0 140 146">
  <defs>
    <style>

      .cls-2 {
        fill: #654a1d;
      }
    </style>
  </defs>
  <path d="M114.358,45.071 C114.358,45.071 127.205,44.602 127.205,44.602 C127.205,44.602 127.319,47.803 127.319,47.803 C127.319,47.803 108.086,48.500 108.086,48.500 C108.086,48.500 108.787,29.297 108.787,29.297 C108.787,29.297 111.992,29.411 111.992,29.411 C111.992,29.411 111.521,42.247 111.521,42.247 C111.521,42.247 137.164,16.640 137.164,16.640 C137.164,16.640 139.996,19.469 139.996,19.469 C139.996,19.469 114.358,45.071 114.358,45.071 ZM116.596,19.092 C116.596,19.092 117.065,6.262 117.065,6.262 C117.065,6.262 91.427,31.864 91.427,31.864 C91.427,31.864 88.595,29.036 88.595,29.036 C88.595,29.036 114.237,3.430 114.237,3.430 C114.237,3.430 101.383,3.900 101.383,3.900 C101.383,3.900 101.270,0.700 101.270,0.700 C101.270,0.700 120.500,-0.000 120.500,-0.000 C120.500,-0.000 119.802,19.206 119.802,19.206 C119.802,19.206 116.596,19.092 116.596,19.092 ZM116.288,67.690 C116.288,67.690 116.288,139.743 116.288,139.743 C116.288,143.193 113.478,146.000 110.023,146.000 C110.023,146.000 6.264,146.000 6.264,146.000 C2.810,146.000 -0.001,143.193 -0.001,139.743 C-0.001,139.743 -0.001,67.690 -0.001,67.690 C-0.001,64.240 2.810,61.434 6.264,61.434 C6.264,61.434 20.181,61.434 20.181,61.434 C20.181,61.434 20.181,65.434 20.181,65.434 C20.181,65.434 6.264,65.434 6.264,65.434 C5.018,65.434 4.004,66.446 4.004,67.690 C4.004,67.690 4.004,139.743 4.004,139.743 C4.004,140.988 5.018,142.000 6.264,142.000 C6.264,142.000 110.023,142.000 110.023,142.000 C111.269,142.000 112.283,140.988 112.283,139.743 C112.283,139.743 112.283,67.690 112.283,67.690 C112.283,66.446 111.269,65.434 110.023,65.434 C110.023,65.434 81.938,65.434 81.938,65.434 C81.938,65.434 81.938,61.434 81.938,61.434 C81.938,61.434 110.023,61.434 110.023,61.434 C113.478,61.434 116.288,64.240 116.288,67.690 ZM70.161,108.562 C70.161,108.562 31.959,108.562 31.959,108.562 C29.347,108.562 27.223,106.441 27.223,103.833 C27.223,103.833 27.223,35.431 27.223,35.431 C27.223,32.823 29.347,30.702 31.959,30.702 C31.959,30.702 70.161,30.702 70.161,30.702 C72.772,30.702 74.897,32.823 74.897,35.431 C74.897,35.431 74.897,103.833 74.897,103.833 C74.897,106.441 72.772,108.562 70.161,108.562 ZM51.060,101.198 C51.498,101.198 51.854,100.842 51.854,100.405 C51.854,99.967 51.498,99.612 51.060,99.612 C50.622,99.612 50.265,99.967 50.265,100.405 C50.265,100.842 50.622,101.198 51.060,101.198 ZM64.232,93.026 C64.232,93.026 64.232,46.238 64.232,46.238 C64.232,46.238 37.887,46.238 37.887,46.238 C37.887,46.238 37.887,93.026 37.887,93.026 C37.887,93.026 64.232,93.026 64.232,93.026 ZM70.891,35.431 C70.891,35.029 70.564,34.701 70.161,34.701 C70.161,34.701 31.959,34.701 31.959,34.701 C31.556,34.701 31.228,35.029 31.228,35.431 C31.228,35.431 31.228,103.833 31.228,103.833 C31.228,104.235 31.556,104.562 31.959,104.562 C31.959,104.562 48.717,104.562 48.717,104.562 C47.258,103.739 46.260,102.194 46.260,100.405 C46.260,99.087 46.796,97.893 47.660,97.025 C47.660,97.025 33.881,97.025 33.881,97.025 C33.881,97.025 33.881,42.238 33.881,42.238 C33.881,42.238 68.238,42.238 68.238,42.238 C68.238,42.238 68.238,97.025 68.238,97.025 C68.238,97.025 54.459,97.025 54.459,97.025 C55.324,97.893 55.860,99.087 55.860,100.405 C55.860,102.194 54.862,103.739 53.403,104.562 C53.403,104.562 70.161,104.562 70.161,104.562 C70.564,104.562 70.891,104.235 70.891,103.833 C70.891,103.833 70.891,35.431 70.891,35.431 ZM45.194,37.051 C45.194,37.051 56.925,37.051 56.925,37.051 C56.925,37.051 56.925,41.051 56.925,41.051 C56.925,41.051 45.194,41.051 45.194,41.051 C45.194,41.051 45.194,37.051 45.194,37.051 ZM12.393,134.998 C12.393,134.998 103.894,134.998 103.894,134.998 C103.894,134.998 103.894,72.436 103.894,72.436 C103.894,72.436 81.938,72.436 81.938,72.436 C81.938,72.436 81.938,68.436 81.938,68.436 C81.938,68.436 107.900,68.436 107.900,68.436 C107.900,68.436 107.900,138.998 107.900,138.998 C107.900,138.998 8.388,138.998 8.388,138.998 C8.388,138.998 8.388,68.436 8.388,68.436 C8.388,68.436 20.181,68.436 20.181,68.436 C20.181,68.436 20.181,72.436 20.181,72.436 C20.181,72.436 12.393,72.436 12.393,72.436 C12.393,72.436 12.393,134.998 12.393,134.998 Z" id="path-1" class="cls-2" fill-rule="evenodd"/>
</svg>
