<svg xmlns="http://www.w3.org/2000/svg" xmlns:xlink="http://www.w3.org/1999/xlink" preserveAspectRatio="xMidYMid" width="138" height="148" viewBox="0 0 138 148">
  <defs>
    <style>

      .cls-2 {
        fill: #654a1d;
      }
    </style>
  </defs>
  <path d="M136.330,105.766 C136.211,105.852 136.034,105.896 135.805,105.896 C135.629,105.896 135.446,105.832 135.248,105.704 C135.054,105.577 134.822,105.419 134.554,105.231 C134.282,105.043 133.965,104.841 133.602,104.626 C133.239,104.412 132.809,104.210 132.312,104.022 C131.811,103.834 131.233,103.675 130.573,103.549 C129.911,103.421 129.153,103.357 128.289,103.357 C126.741,103.357 125.324,103.623 124.037,104.154 C122.751,104.684 121.644,105.439 120.713,106.419 C119.786,107.400 119.060,108.596 118.541,110.005 C118.023,111.415 117.762,112.994 117.762,114.741 C117.762,116.541 118.023,118.146 118.541,119.556 C119.060,120.965 119.768,122.157 120.664,123.131 C121.559,124.105 122.620,124.847 123.844,125.358 C125.070,125.868 126.389,126.123 127.806,126.123 C128.666,126.123 129.442,126.074 130.129,125.972 C130.813,125.871 131.451,125.713 132.037,125.499 C132.622,125.284 133.168,125.012 133.672,124.683 C134.180,124.354 134.688,123.961 135.199,123.504 C135.428,123.303 135.650,123.201 135.865,123.201 C136.080,123.201 136.278,123.289 136.450,123.463 C136.450,123.463 137.987,125.137 137.987,125.137 C136.803,126.506 135.364,127.575 133.672,128.339 C131.984,129.106 129.946,129.487 127.563,129.487 C125.476,129.487 123.583,129.129 121.887,128.410 C120.188,127.692 118.739,126.683 117.540,125.388 C116.341,124.092 115.414,122.537 114.755,120.724 C114.092,118.910 113.764,116.915 113.764,114.741 C113.764,112.565 114.117,110.570 114.826,108.757 C115.531,106.943 116.525,105.386 117.805,104.083 C119.084,102.779 120.614,101.768 122.402,101.051 C124.185,100.332 126.156,99.972 128.310,99.972 C130.436,99.972 132.273,100.302 133.817,100.960 C135.357,101.617 136.729,102.512 137.927,103.639 C137.927,103.639 136.655,105.432 136.655,105.432 C136.560,105.567 136.450,105.678 136.330,105.766 ZM69.234,108.844 C72.434,116.931 71.772,126.141 67.404,133.684 C62.292,142.514 52.759,148.000 42.524,148.000 C37.513,148.000 32.559,146.672 28.197,144.159 C21.559,140.338 16.810,134.166 14.825,126.781 C12.841,119.395 13.859,111.682 17.692,105.061 C22.058,97.520 29.726,92.344 38.348,91.062 C38.348,91.062 85.928,8.880 85.928,8.880 C89.099,3.403 95.034,0.000 101.418,0.000 C104.528,0.000 107.595,0.820 110.288,2.370 C114.399,4.737 117.343,8.574 118.579,13.173 C119.814,17.773 119.187,22.564 116.814,26.663 C116.814,26.663 69.234,108.844 69.234,108.844 ZM114.704,14.208 C113.746,10.641 111.465,7.667 108.282,5.834 C106.199,4.634 103.825,4.000 101.418,4.000 C96.463,4.000 91.858,6.636 89.402,10.880 C89.402,10.880 40.821,94.792 40.821,94.792 C40.821,94.792 39.814,94.904 39.814,94.904 C32.040,95.775 25.069,100.320 21.166,107.061 C17.869,112.757 16.992,119.392 18.700,125.745 C20.407,132.098 24.492,137.408 30.203,140.695 C33.956,142.857 38.216,144.000 42.524,144.000 C51.330,144.000 59.533,139.281 63.931,131.684 C67.835,124.941 68.296,116.648 65.165,109.500 C65.165,109.500 64.759,108.574 64.759,108.574 C64.759,108.574 113.340,24.663 113.340,24.663 C115.178,21.489 115.662,17.776 114.704,14.208 ZM84.782,26.015 C84.782,26.015 86.788,22.551 86.788,22.551 C86.788,22.551 96.251,28.000 96.251,28.000 C96.251,28.000 94.246,31.464 94.246,31.464 C94.246,31.464 84.782,26.015 84.782,26.015 ZM83.502,39.770 C83.502,39.770 78.489,36.884 78.489,36.884 C78.489,36.884 80.495,33.420 80.495,33.420 C80.495,33.420 85.508,36.306 85.508,36.306 C85.508,36.306 83.502,39.770 83.502,39.770 ZM81.659,53.203 C81.659,53.203 72.196,47.755 72.196,47.755 C72.196,47.755 74.201,44.291 74.201,44.291 C74.201,44.291 83.664,49.739 83.664,49.739 C83.664,49.739 81.659,53.203 81.659,53.203 ZM70.915,61.512 C70.915,61.512 65.902,58.626 65.902,58.626 C65.902,58.626 67.907,55.162 67.907,55.162 C67.907,55.162 72.921,58.048 72.921,58.048 C72.921,58.048 70.915,61.512 70.915,61.512 ZM69.072,74.944 C69.072,74.944 59.609,69.495 59.609,69.495 C59.609,69.495 61.614,66.031 61.614,66.031 C61.614,66.031 71.078,71.480 71.078,71.480 C71.078,71.480 69.072,74.944 69.072,74.944 ZM58.330,83.250 C58.330,83.250 53.317,80.365 53.317,80.365 C53.317,80.365 55.322,76.900 55.322,76.900 C55.322,76.900 60.335,79.786 60.335,79.786 C60.335,79.786 58.330,83.250 58.330,83.250 ZM55.725,113.004 C55.725,113.004 54.713,110.693 54.713,110.693 C54.713,110.693 77.213,71.831 77.213,71.831 C77.213,71.831 80.686,73.831 80.686,73.831 C80.686,73.831 59.200,110.944 59.200,110.944 C59.200,110.944 59.401,111.402 59.401,111.402 C61.733,116.725 61.390,122.901 58.482,127.923 C55.206,133.580 49.097,137.095 42.540,137.095 C39.333,137.095 36.160,136.245 33.364,134.635 C24.584,129.579 21.565,118.342 26.633,109.586 C29.584,104.490 34.646,101.190 40.521,100.532 C40.521,100.532 42.026,100.363 42.026,100.363 C42.026,100.363 42.475,104.339 42.475,104.339 C42.475,104.339 40.969,104.507 40.969,104.507 C36.373,105.022 32.413,107.602 30.106,111.586 C26.144,118.432 28.505,127.217 35.370,131.171 C37.556,132.430 40.036,133.095 42.540,133.095 C47.669,133.095 52.447,130.347 55.009,125.923 C57.282,121.997 57.549,117.167 55.725,113.004 ZM25.164,49.869 C25.164,49.869 37.041,49.869 37.041,49.869 C37.041,49.869 37.041,53.052 37.041,53.052 C37.041,53.052 25.164,53.052 25.164,53.052 C25.164,53.052 25.164,65.462 25.164,65.462 C25.164,65.462 21.223,65.462 21.223,65.462 C21.223,65.462 21.223,36.592 21.223,36.592 C21.223,36.592 39.061,36.592 39.061,36.592 C39.061,36.592 39.061,39.775 39.061,39.775 C39.061,39.775 25.164,39.775 25.164,39.775 C25.164,39.775 25.164,49.869 25.164,49.869 ZM14.341,49.825 C13.612,50.584 12.734,51.173 11.708,51.593 C10.682,52.012 9.550,52.221 8.309,52.221 C7.068,52.221 5.937,52.012 4.918,51.593 C3.896,51.173 3.021,50.584 2.291,49.825 C1.562,49.066 0.994,48.158 0.596,47.106 C0.194,46.053 -0.007,44.896 -0.007,43.636 C-0.007,42.375 0.194,41.217 0.596,40.164 C0.994,39.111 1.562,38.202 2.291,37.439 C3.021,36.676 3.896,36.082 4.918,35.660 C5.937,35.237 7.068,35.026 8.309,35.026 C9.550,35.026 10.682,35.237 11.708,35.660 C12.734,36.082 13.612,36.676 14.341,37.439 C15.071,38.202 15.635,39.111 16.037,40.164 C16.435,41.217 16.636,42.375 16.636,43.636 C16.636,44.896 16.435,46.053 16.037,47.106 C15.635,48.158 15.071,49.066 14.341,49.825 ZM13.869,40.851 C13.587,40.029 13.185,39.334 12.667,38.766 C12.148,38.199 11.521,37.763 10.784,37.457 C10.044,37.151 9.219,36.998 8.309,36.998 C7.407,36.998 6.585,37.151 5.849,37.457 C5.108,37.763 4.481,38.199 3.959,38.766 C3.434,39.334 3.032,40.029 2.750,40.851 C2.468,41.674 2.327,42.602 2.327,43.636 C2.327,44.669 2.468,45.596 2.750,46.413 C3.032,47.232 3.434,47.925 3.959,48.492 C4.481,49.060 5.108,49.494 5.849,49.795 C6.585,50.097 7.407,50.249 8.309,50.249 C9.219,50.249 10.044,50.097 10.784,49.795 C11.521,49.494 12.148,49.060 12.667,48.492 C13.185,47.925 13.587,47.232 13.869,46.413 C14.151,45.596 14.292,44.669 14.292,43.636 C14.292,42.602 14.151,41.674 13.869,40.851 ZM96.529,101.142 C97.258,100.380 98.133,99.785 99.155,99.364 C100.174,98.940 101.306,98.729 102.547,98.729 C103.788,98.729 104.919,98.940 105.945,99.364 C106.971,99.785 107.849,100.380 108.579,101.142 C109.308,101.905 109.872,102.814 110.274,103.867 C110.673,104.920 110.874,106.078 110.874,107.339 C110.874,108.599 110.673,109.756 110.274,110.809 C109.872,111.862 109.308,112.769 108.579,113.528 C107.849,114.287 106.971,114.876 105.945,115.296 C104.919,115.715 103.788,115.924 102.547,115.924 C101.306,115.924 100.174,115.715 99.155,115.296 C98.133,114.876 97.258,114.287 96.529,113.528 C95.799,112.769 95.231,111.862 94.833,110.809 C94.431,109.756 94.230,108.599 94.230,107.339 C94.230,106.078 94.431,104.920 94.833,103.867 C95.231,102.814 95.799,101.905 96.529,101.142 ZM96.987,110.116 C97.269,110.935 97.671,111.628 98.196,112.196 C98.718,112.763 99.346,113.198 100.086,113.498 C100.823,113.800 101.644,113.952 102.547,113.952 C103.456,113.952 104.281,113.800 105.021,113.498 C105.758,113.198 106.386,112.763 106.904,112.196 C107.422,111.628 107.824,110.935 108.106,110.116 C108.388,109.299 108.529,108.372 108.529,107.339 C108.529,106.305 108.388,105.377 108.106,104.554 C107.824,103.732 107.422,103.037 106.904,102.470 C106.386,101.902 105.758,101.466 105.021,101.160 C104.281,100.854 103.456,100.701 102.547,100.701 C101.644,100.701 100.823,100.854 100.086,101.160 C99.346,101.466 98.718,101.902 98.196,102.470 C97.671,103.037 97.269,103.732 96.987,104.554 C96.705,105.377 96.564,106.305 96.564,107.339 C96.564,108.372 96.705,109.299 96.987,110.116 Z" id="path-1" class="cls-2" fill-rule="evenodd"/>
</svg>
