<svg xmlns="http://www.w3.org/2000/svg" xmlns:xlink="http://www.w3.org/1999/xlink" preserveAspectRatio="xMidYMid" width="90" height="78" viewBox="0 0 90 78">
  <defs>
    <style>

      .cls-2 {
        fill: #654a1d;
      }
    </style>
  </defs>
  <path d="M63.964,32.965 C63.964,32.965 63.950,26.983 63.950,26.983 C63.950,26.983 79.717,26.947 79.717,26.947 C73.766,20.972 67.217,14.492 65.723,13.287 C58.455,7.430 48.991,4.914 39.759,6.387 C25.652,8.652 14.671,19.631 12.437,33.705 C12.437,33.705 6.518,32.769 6.518,32.769 C9.158,16.134 22.136,3.158 38.810,0.480 C49.718,-1.260 60.900,1.712 69.489,8.633 C71.395,10.171 78.805,17.544 83.983,22.744 C83.983,22.744 83.946,6.932 83.946,6.932 C83.946,6.932 89.939,6.918 89.939,6.918 C89.939,6.918 90.000,32.905 90.000,32.905 C90.000,32.905 63.964,32.965 63.964,32.965 ZM26.046,50.615 C26.046,50.615 10.280,50.652 10.280,50.652 C16.270,56.667 22.915,63.244 24.421,64.459 C31.694,70.319 41.152,72.830 50.369,71.347 C64.487,69.093 75.472,58.120 77.707,44.041 C77.707,44.041 83.627,44.977 83.627,44.977 C80.985,61.619 68.001,74.590 51.319,77.253 C49.266,77.583 47.202,77.746 45.148,77.746 C36.305,77.746 27.631,74.733 20.655,69.112 C18.732,67.560 11.198,60.061 6.014,54.854 C6.014,54.854 6.051,70.666 6.051,70.666 C6.051,70.666 0.057,70.680 0.057,70.680 C0.057,70.680 -0.003,44.693 -0.003,44.693 C-0.003,44.693 26.032,44.633 26.032,44.633 C26.032,44.633 26.046,50.615 26.046,50.615 Z" id="path-1" class="cls-2" fill-rule="evenodd"/>
</svg>
